<?xml version="1.0" encoding="utf-8"?>
<!DOCTYPE svg PUBLIC "-//W3C//DTD SVG 1.1//EN" "http://www.w3.org/Graphics/SVG/1.1/DTD/svg11.dtd">
<svg version="1.1" xmlns="http://www.w3.org/2000/svg" xmlns:xlink="http://www.w3.org/1999/xlink" x="0px" y="0px" width="33px"
	 height="38.001px" viewBox="0 0 33 38.001" enable-background="new 0 0 33 38.001" xml:space="preserve">
	<polygon fill="#474B55" points="0,9.5 16.5,0 33,9.5 33,28.5 16.5,38 0,28.5 	"/>
	<polygon fill="#3C4048" points="19.765,25.625 22.151,26.524 12.737,35.838 0,28.5 0,21.92 10.699,11.322 10.639,17.971 
		9.39,19.159 10.17,19.806 19.28,10.702 22.148,14.272 22.935,19.424 21.689,24.775 	"/>
    <path fill="#ECF0F1" d="M8.602,18.103c1.426-0.042,1.57-0.785,1.57-1.405c0-0.517-0.062-1.054-0.124-1.611
        c-0.062-0.558-0.103-1.116-0.103-1.632c0-1.942,1.219-2.789,3.14-2.789h0.723v1.756h-0.372c-0.93,0-1.26,0.558-1.26,1.467
        c0,0.372,0.062,0.744,0.104,1.178c0.042,0.413,0.104,0.889,0.104,1.405c0.021,1.57-0.62,2.149-1.756,2.397v0.041
        c1.136,0.248,1.777,0.847,1.756,2.417c0,0.537-0.062,1.012-0.104,1.446c-0.042,0.413-0.104,0.806-0.104,1.157
        c0,0.909,0.31,1.488,1.26,1.488h0.372v1.735h-0.744c-1.839,0-3.12-0.744-3.12-2.81c0-0.517,0.041-1.075,0.103-1.632
        c0.062-0.558,0.124-1.095,0.124-1.612c0-0.578-0.145-1.363-1.57-1.405V18.103z"/>
    <path fill="#ECF0F1" d="M24.511,19.694c-1.405,0.042-1.57,0.827-1.57,1.405c0,0.517,0.062,1.054,0.124,1.612
        c0.062,0.558,0.124,1.116,0.124,1.632c0,2.066-1.281,2.81-3.141,2.81h-0.744v-1.735h0.372c0.95-0.021,1.26-0.579,1.26-1.488
        c0-0.351-0.042-0.744-0.104-1.157c-0.041-0.434-0.103-0.909-0.103-1.446c-0.021-1.57,0.62-2.169,1.776-2.417v-0.041
        c-1.157-0.248-1.797-0.827-1.776-2.397c0-0.516,0.062-0.992,0.103-1.405c0.062-0.434,0.104-0.806,0.104-1.178
        c0-0.909-0.331-1.446-1.26-1.467h-0.372v-1.756h0.723c1.942,0,3.161,0.847,3.161,2.789c0,0.517-0.062,1.074-0.124,1.632
        c-0.062,0.558-0.124,1.095-0.124,1.611c0,0.62,0.165,1.363,1.57,1.405V19.694z"/>
</svg>