<?xml version="1.0" encoding="utf-8"?>
<!DOCTYPE svg PUBLIC "-//W3C//DTD SVG 1.1//EN" "http://www.w3.org/Graphics/SVG/1.1/DTD/svg11.dtd">
<svg version="1.1" xmlns="http://www.w3.org/2000/svg" xmlns:xlink="http://www.w3.org/1999/xlink" x="0px" y="0px" width="33px"
	 height="38.001px" viewBox="0 0 33 38.001" enable-background="new 0 0 33 38.001" xml:space="preserve">
	<polygon fill="#EA7724" points="0,9.5 16,0 32,9.5 32,28.5 16,38.001 0,28.5 	"/>
	<polygon fill="#D46E24" points="21.79,24.456 11.14,35.106 0,28.496 0,23.686 10.76,12.926 15.32,13.306 21.46,19.206 	"/>
	<circle fill="#ECF0F1" cx="16" cy="18.966" r="8"/>
    <rect x="10" y="15.631" fill="none" width="12" height="6.667"/>
    <path fill="#EA7724" d="M17.918,19.699c-0.027-0.729-0.054-1.612-0.054-2.494h-0.027c-0.189,0.774-0.441,1.639-0.675,2.35
        l-0.738,2.368h-1.071l-0.648-2.35c-0.198-0.712-0.405-1.576-0.549-2.368h-0.018c-0.036,0.819-0.063,1.756-0.108,2.512
        l-0.108,2.305h-1.27l0.387-6.067h1.828l0.594,2.025c0.189,0.702,0.378,1.458,0.513,2.17h0.027
        c0.171-0.703,0.378-1.504,0.576-2.179l0.648-2.017h1.792l0.333,6.067h-1.341L17.918,19.699z"/>
</svg>