<?xml version="1.0" encoding="utf-8"?>
<!DOCTYPE svg PUBLIC "-//W3C//DTD SVG 1.1//EN" "http://www.w3.org/Graphics/SVG/1.1/DTD/svg11.dtd">
<svg version="1.1" xmlns="http://www.w3.org/2000/svg" xmlns:xlink="http://www.w3.org/1999/xlink" x="0px" y="0px" width="33px"
	 height="38.001px" viewBox="0 0 33 38.001" enable-background="new 0 0 33 38.001" xml:space="preserve">
	<polygon fill="#C0392B" points="0,9.5 16,0 32,9.5 32,28.5 16,38.001 0,28.5"/>
	<polygon fill="#AC3327" points="18.87,26.563 10.73,34.871 0,28.496 0,24.242 10.866,13.415 12.534,15.911 8.073,20.454 9.435,21.218 13.171,20.382 15.645,18.096 18.216,20.651 16.682,22.354"/>
    <path fill="#ECF0F1" d="M14.067,16.316l-1.015-0.959c0.119-0.214,0.191-0.458,0.191-0.72c0-0.831-0.673-1.504-1.505-1.504 s-1.506,0.673-1.506,1.504c0,0.832,0.674,1.505,1.506,1.505c0.293,0,0.564-0.087,0.796-0.232l1.013,0.958 C13.701,16.666,13.874,16.48,14.067,16.316z"/>
    <path fill="#ECF0F1" d="M18.358,16.197l1.348-2.269c0.133,0.038,0.271,0.065,0.415,0.065c0.833,0,1.506-0.674,1.506-1.505 c0-0.831-0.673-1.504-1.506-1.504c-0.832,0-1.504,0.673-1.504,1.504c0,0.413,0.167,0.786,0.435,1.058l-1.344,2.263 C17.94,15.914,18.158,16.044,18.358,16.197z"/>
    <path fill="#ECF0F1" d="M23.008,18.096c-0.647,0-1.196,0.411-1.408,0.985l-1.873-0.185c0,0.014,0.002,0.027,0.002,0.042 c0,0.244-0.027,0.482-0.076,0.713l1.873,0.185c0.113,0.718,0.732,1.269,1.482,1.269c0.831,0,1.504-0.673,1.504-1.504 C24.513,18.77,23.839,18.096,23.008,18.096z"/>
    <path fill="#ECF0F1" d="M17.839,24.013l-0.418-1.83c-0.236,0.083-0.483,0.142-0.739,0.17l0.419,1.831 c-0.481,0.252-0.813,0.749-0.813,1.33c0,0.831,0.673,1.504,1.506,1.504c0.831,0,1.504-0.673,1.504-1.504 C19.299,24.698,18.649,24.038,17.839,24.013z"/>
    <path fill="#ECF0F1" d="M12.927,19.664l-2.332,0.781c-0.269-0.411-0.732-0.684-1.259-0.684c-0.832,0-1.504,0.673-1.504,1.504 c0,0.833,0.673,1.506,1.504,1.506c0.831,0,1.505-0.673,1.505-1.506c0-0.035-0.007-0.067-0.01-0.101l2.339-0.784 C13.065,20.155,12.981,19.915,12.927,19.664z"/>
    <circle fill="#ECF0F1" cx="16.29" cy="18.938" r="2.58"/>
</svg>