<?xml version="1.0" encoding="utf-8"?>
<!DOCTYPE svg PUBLIC "-//W3C//DTD SVG 1.1//EN" "http://www.w3.org/Graphics/SVG/1.1/DTD/svg11.dtd">
<svg version="1.1" xmlns="http://www.w3.org/2000/svg" xmlns:xlink="http://www.w3.org/1999/xlink" x="0px" y="0px" width="33px"
	 height="38.001px" viewBox="0 0 33 38.001" enable-background="new 0 0 33 38.001" xml:space="preserve">
	<polygon fill="#474B55" points="0,9.5 16,0 32,9.5 32,28.5 16,38 0,28.5"/>
	<polygon fill="#3C4048" points="19.166,25.625 21.48,26.524 12.351,35.838 0,28.5 0,21.92 10.375,11.322 10.316,17.971 9.105,19.159 9.862,19.806 18.696,10.702 21.477,14.272 22.24,19.424 21.032,24.775"/>
    <path fill="#ECF0F1" d="M8.342,18.103c1.382-0.041,1.522-0.785,1.522-1.405c0-0.517-0.06-1.054-0.12-1.612 c-0.06-0.558-0.1-1.115-0.1-1.632c0-1.942,1.182-2.789,3.045-2.789h0.701v1.756H13.03c-0.901,0-1.222,0.558-1.222,1.467 c0,0.372,0.06,0.744,0.1,1.178c0.041,0.413,0.101,0.889,0.101,1.405c0.02,1.57-0.601,2.149-1.703,2.397v0.041 c1.102,0.248,1.723,0.847,1.703,2.417c0,0.537-0.06,1.012-0.101,1.446c-0.04,0.413-0.1,0.806-0.1,1.157 c0,0.909,0.301,1.488,1.222,1.488h0.361v1.735H12.67c-1.783,0-3.025-0.744-3.025-2.81c0-0.516,0.04-1.074,0.1-1.632 c0.06-0.558,0.12-1.095,0.12-1.612c0-0.578-0.14-1.363-1.522-1.405V18.103z"/>
    <path fill="#ECF0F1" d="M23.769,19.694c-1.362,0.042-1.522,0.827-1.522,1.405c0,0.517,0.06,1.054,0.12,1.612 c0.06,0.558,0.12,1.116,0.12,1.632c0,2.066-1.242,2.81-3.045,2.81H18.72v-1.735h0.361c0.921-0.021,1.222-0.579,1.222-1.488 c0-0.351-0.04-0.744-0.1-1.157c-0.04-0.434-0.1-0.909-0.1-1.446c-0.02-1.57,0.601-2.169,1.723-2.417v-0.041 c-1.122-0.248-1.743-0.827-1.723-2.397c0-0.516,0.06-0.992,0.1-1.405c0.06-0.434,0.1-0.806,0.1-1.178 c0-0.909-0.32-1.446-1.222-1.467H18.72v-1.756h0.701c1.883,0,3.065,0.847,3.065,2.789c0,0.517-0.06,1.074-0.12,1.632 c-0.06,0.558-0.12,1.095-0.12,1.612c0,0.62,0.16,1.364,1.522,1.405V19.694z"/>
</svg>